<svg id="Layer_1" data-name="Layer 1" xmlns="http://www.w3.org/2000/svg" viewBox="0 0 118.92 38"><defs><style>.cls-1{fill:#232444;}</style></defs><title>EWPlus-Logo-Navy</title><rect class="cls-1" y="33.47" width="118.92" height="4.53" rx="1.35"/><path class="cls-1" d="M50.58,14.2V4.83h1.5c2.25,0,3.31,1.48,3.31,4.21v.48c0,2.75-1.16,4.68-3.41,4.68Zm-16.2-2.59h0l1.8,8.84H32.58Zm4.13,17.31h4c.53,0,.58-.26.45-.79l-6.7-27C36,.3,35.91.07,35.38.07h-2c-.53,0-.64.26-.83,1.08l-6.46,27c-.13.58,0,.79.53.79H30.3c.53,0,.69-.29.79-.79L31.73,25h5.35l.63,3.18C37.82,28.63,38,28.92,38.51,28.92ZM21.62.86,19.08,15h0l-4-13.26c-.1-.35-.21-.58-.53-.58s-.42.23-.52.58L9.71,15h0L7.06.86C7,.33,6.9.07,6.37.07H2.45c-.26,0-.47.26-.37.79l5,27.27a.86.86,0,0,0,.8.79H9.38c.52,0,.68-.42.79-.79l4.17-13.5h0l4.25,13.5c.1.37.26.79.79.79h1.47a.8.8,0,0,0,.79-.79L26.44.86c.08-.53,0-.79-.53-.79h-3.5C21.88.07,21.73.33,21.62.86ZM69.37,14.2V4.83h1.51c2.25,0,3.31,1.48,3.31,4.21v.48c0,2.75-1.17,4.68-3.42,4.68ZM60.69,9.36V8.78c0-5.11-3-8.71-8-8.71H45.81c-.26,0-.53.26-.53.79V28.13c0,.47.11.79.53.79h4a.73.73,0,0,0,.8-.79V18.6h1l4.13,9.53c.29.69.45.79,1.06.79h4c.53,0,.77-.26.53-.79L56.51,17.49C60.34,15.42,60.69,11.21,60.69,9.36Zm18.79,0V8.78c0-5.11-3-8.71-8-8.71H64.6c-.26,0-.53.26-.53.79V28.13c0,.47.11.79.53.79h4a.73.73,0,0,0,.8-.79V18.6h.95l4.13,9.53c.29.69.45.79,1.06.79h4c.53,0,.77-.26.53-.79L75.3,17.49C79.14,15.42,79.48,11.21,79.48,9.36Z" transform="translate(-0.54)"/><path class="cls-1" d="M99.07.74c0-.53.26-.74.79-.74h.59c.53,0,.71.13,1,.64l8.68,14.25h0V.86c0-.53.26-.79.53-.79h3.44a.7.7,0,0,1,.79.79V28.35c0,.53-.26.64-.79.64h-.42a.88.88,0,0,1-.85-.56l-8.76-14.37h0V28.13c0,.53-.26.79-.53.79H99.86a.7.7,0,0,1-.79-.79Z" transform="translate(-0.54)"/><path class="cls-1" d="M83.4,28.92c-.53,0-.53-.26-.53-.79V.86c0-.53,0-.79.53-.79H94.91a.7.7,0,0,1,.8.79V4a.7.7,0,0,1-.8.79H88.16v6.88h6c.53,0,.53.27.53.8v3.18c0,.26,0,.52-.53.52h-6v8h6.75a.7.7,0,0,1,.8.79v3.18a.7.7,0,0,1-.8.79Z" transform="translate(-0.54)"/></svg>