<?xml version="1.0" standalone="no"?>
<!DOCTYPE svg PUBLIC "-//W3C//DTD SVG 20010904//EN"
 "http://www.w3.org/TR/2001/REC-SVG-20010904/DTD/svg10.dtd">
<svg version="1.0" xmlns="http://www.w3.org/2000/svg"
 width="260.000000pt" height="260.000000pt" viewBox="0 0 260.000000 260.000000"
 preserveAspectRatio="xMidYMid meet">
<metadata>
Created by potrace 1.11, written by Peter Selinger 2001-2013
</metadata>
<g transform="translate(0.000000,260.000000) scale(0.100000,-0.100000)"
fill="#000000" stroke="none">
<path d="M0 1300 l0 -1300 1300 0 1300 0 0 1300 0 1300 -1300 0 -1300 0 0
-1300z m928 968 c6 -18 18 -73 27 -123 9 -49 25 -133 35 -185 10 -52 33 -173
51 -267 18 -95 36 -173 39 -173 3 0 56 156 119 348 62 191 119 354 127 362 23
24 38 -3 79 -135 98 -320 155 -506 165 -545 6 -23 13 -40 16 -37 3 3 23 101
44 218 75 410 98 534 105 552 6 15 22 17 126 17 99 0 121 -3 126 -15 6 -16
-16 -149 -107 -660 -28 -154 -59 -329 -70 -390 -10 -60 -33 -188 -50 -283 -16
-96 -30 -175 -30 -177 0 -2 -7 -11 -16 -19 -22 -23 -116 -22 -136 2 -8 9 -29
64 -47 122 -18 58 -66 209 -106 335 -40 127 -76 240 -80 253 -3 12 -9 22 -13
22 -4 0 -56 -159 -116 -352 -60 -194 -115 -363 -123 -375 -11 -20 -22 -23 -72
-23 -39 0 -63 5 -71 15 -7 8 -21 61 -31 117 -27 144 -66 353 -90 483 -11 61
-33 178 -49 260 -79 410 -121 657 -116 670 4 12 29 15 130 15 l124 0 10 -32z
m1140 -1835 l3 -123 -746 0 -745 0 0 118 c0 65 3 122 7 125 3 4 338 6 742 5
l736 -3 3 -122z"/>
</g>
</svg>
